<svg width="170" height="27" viewBox="0 0 170 27" xmlns="http://www.w3.org/2000/svg"><title>891F5DDE-C57D-4A8D-9337-349BC63C4775</title><g fill-rule="nonzero" fill="#FFF"><path d="M46.533.644a2.101 2.101 0 0 0-2.872.77l-8.424 13.712-3.006-5.208A2.087 2.087 0 0 0 30.875 8.8l-.181-.04h-.72l-.18.04a2.083 2.083 0 0 0-1.357 1.118l-3.013 5.216-5.216-9.043a10.507 10.507 0 1 0-.745 10.851 2.101 2.101 0 0 0-3.508-2.304 6.308 6.308 0 1 1 .343-6.96l7.307 12.679c.33.568.906.95 1.559 1.03h.539a2.098 2.098 0 0 0 1.558-1.03l3.082-5.336 3.082 5.336c.255.443.665.778 1.15.94h.033l.152.043h.065l.126.022h.59l.126-.022h.066l.151-.043h.033a2.09 2.09 0 0 0 1.15-.94l10.24-16.86a2.101 2.101 0 0 0-.77-2.871M50.65 11.104a29.504 29.504 0 0 1 .321-4.792c.15-1.08.49-2.126 1.002-3.09a3.896 3.896 0 0 1 1.693-1.649 6.189 6.189 0 0 1 4.702-.029 3.414 3.414 0 0 1 1.552 1.577c.455.96.746 1.99.86 3.046.198 1.6.287 3.21.268 4.822a32.97 32.97 0 0 1-.311 4.948 9.766 9.766 0 0 1-.973 3.186A4.008 4.008 0 0 1 58.1 20.83a5.209 5.209 0 0 1-2.383.507 5.892 5.892 0 0 1-2.355-.423 3.302 3.302 0 0 1-1.577-1.567 9.462 9.462 0 0 1-.875-3.128c-.2-1.698-.29-3.406-.268-5.115m3.617.706c0 1.109.018 2.058.054 2.846.022.654.097 1.305.224 1.946.067.407.236.79.492 1.114.22.241.535.373.861.362.325.006.636-.133.847-.38.272-.36.45-.78.52-1.226.14-.716.225-1.441.254-2.17.045-.883.07-1.945.072-3.187a82.35 82.35 0 0 0-.043-3.129 12.594 12.594 0 0 0-.21-2.101 2.481 2.481 0 0 0-.507-1.172 1.172 1.172 0 0 0-.9-.362 1.006 1.006 0 0 0-.803.395c-.266.379-.444.813-.521 1.27a14.106 14.106 0 0 0-.268 2.31c-.048.965-.07 2.13-.068 3.498M62.52 7.806a7.09 7.09 0 0 1 1.932-.803 8.706 8.706 0 0 1 2.242-.297 6.67 6.67 0 0 1 1.845.239 3.046 3.046 0 0 1 1.425.886c.436.511.754 1.113.93 1.761.248.923.363 1.877.34 2.832a28.64 28.64 0 0 1-.297 4.598 9.574 9.574 0 0 1-.788 2.705 2.814 2.814 0 0 1-1.169 1.295 3.176 3.176 0 0 1-1.447.34 2.854 2.854 0 0 1-1.859-.535v5.556a3.505 3.505 0 0 1-.803.195 6.51 6.51 0 0 1-.832.058c-.41.035-.82-.064-1.168-.282-.235-.188-.362-.554-.362-1.085V7.806h.011zm3.154 10.261a.959.959 0 0 0 .789.506.69.69 0 0 0 .437-.17c.199-.222.33-.495.38-.788.142-.594.237-1.2.282-1.809.075-.79.112-1.853.112-3.186.005-.55-.019-1.101-.072-1.65-.027-.332-.1-.66-.213-.973a.94.94 0 0 0-.362-.466 1.002 1.002 0 0 0-.52-.127 1.277 1.277 0 0 0-.847.337v8.319l.014.007zM77.437 6.702a3.375 3.375 0 0 1 2.651 1.085c.64.724.959 1.898.959 3.523 0 .676-.028 1.376-.084 2.102-.043.642-.147 1.28-.31 1.902a10.49 10.49 0 0 1-1.144.185c-.422.046-.854.088-1.298.127-.444.038-.875.066-1.295.083a27.2 27.2 0 0 1-1.143.029c-.017.68.133 1.352.438 1.96.253.405.718.608 1.396.608.51 0 1.017-.071 1.508-.21a8.529 8.529 0 0 0 1.48-.579c.105.335.171.681.198 1.031.037.405.055.767.055 1.085.001.28-.11.55-.308.749-.246.24-.539.428-.86.55a5.715 5.715 0 0 1-1.281.336c-.514.077-1.032.115-1.552.112a5.288 5.288 0 0 1-1.761-.282 2.98 2.98 0 0 1-1.382-1.03 5.505 5.505 0 0 1-.9-2.044 13.936 13.936 0 0 1-.326-3.3c-.037-1.395.099-2.79.405-4.151a6.623 6.623 0 0 1 1.085-2.424c.4-.534.95-.936 1.58-1.154a6.019 6.019 0 0 1 1.889-.296m-.423 2.734c-.432 0-.742.31-.93.93a11.89 11.89 0 0 0-.336 2.893c.393 0 .787-.019 1.182-.057.31-.018.613-.084.901-.196.066-.225.104-.457.112-.69.017-.292.026-.552.026-.778a8.522 8.522 0 0 0-.055-1.085 2.109 2.109 0 0 0-.17-.633.568.568 0 0 0-.296-.297 1.24 1.24 0 0 0-.438-.069M82.537 7.636c.277-.13.565-.237.86-.319.362-.105.724-.202 1.13-.296.404-.094.813-.17 1.225-.225.384-.054.77-.081 1.158-.083a8.616 8.616 0 0 1 1.83.17c.461.091.892.295 1.255.593.338.305.588.695.724 1.129.172.566.253 1.156.238 1.747v10.167a.781.781 0 0 1-.058.34.492.492 0 0 1-.38.156c-.216.029-.546.047-.987.058-.441.01-1.056 0-1.845 0v-9.766a4.492 4.492 0 0 0-.17-1.508.723.723 0 0 0-.763-.41 1.733 1.733 0 0 0-1.085.337V20.52a.774.774 0 0 1-.058.34.452.452 0 0 1-.361.156 8.742 8.742 0 0 1-.944.058h-1.809V7.636h.04zM91.98 2.163a.97.97 0 0 1 .03-.647.857.857 0 0 1 .676-.17h2.648l1.382 9.19a92.983 92.983 0 0 1 .788 7.332h.224c.039-1.297.118-2.56.239-3.79.12-1.23.276-2.41.467-3.538l1.211-7.502a1.66 1.66 0 0 1 .185-.647.658.658 0 0 1 .579-.195h2.228l1.446 8.344a51.9 51.9 0 0 1 .536 4.019c.115 1.268.21 2.372.282 3.313h.224c.02-.507.052-1.066.098-1.679.046-.612.097-1.237.155-1.873.056-.64.117-1.278.185-1.917a40.62 40.62 0 0 1 .238-1.86l1.183-8.344c.014-.228.083-.45.2-.647a.655.655 0 0 1 .563-.2h2.735l-3.357 19.739c-.32.038-.588.066-.803.083l-.604.054c-.188.02-.386.03-.593.03h-.749a1.396 1.396 0 0 1-1.128-.467 2.861 2.861 0 0 1-.564-1.31l-.623-3.045a58.77 58.77 0 0 1-.282-1.664 49.575 49.575 0 0 1-.253-1.86c-.075-.638-.145-1.277-.21-1.916l-.184-1.809-.185 1.809c-.065.639-.135 1.278-.21 1.917a80.864 80.864 0 0 1-.238 1.859c-.084.603-.164 1.157-.239 1.664l-.763 4.651a8.209 8.209 0 0 1-.749.069c-.217.007-.437.022-.662.043a7.597 7.597 0 0 1-.723.03h-.89a1.183 1.183 0 0 1-1.013-.507 3.082 3.082 0 0 1-.506-1.24c-.113-.565-.245-1.251-.394-2.059a346.807 346.807 0 0 1-.959-5.425c-.169-.987-.329-1.951-.48-2.894l-1.13-6.937M114.866 6.702a3.378 3.378 0 0 1 2.651 1.085c.639.724.959 1.898.959 3.523 0 .676-.03 1.376-.087 2.102a10.21 10.21 0 0 1-.311 1.902 10.49 10.49 0 0 1-1.143.185c-.422.046-.855.088-1.299.127-.444.038-.875.066-1.295.083a27.2 27.2 0 0 1-1.143.029c-.017.68.133 1.352.438 1.96.253.405.719.608 1.396.608.51 0 1.018-.071 1.508-.21a8.529 8.529 0 0 0 1.48-.579c.105.335.172.681.199 1.031.036.405.054.767.054 1.085 0 .281-.111.551-.311.749-.246.24-.54.428-.86.55a5.704 5.704 0 0 1-1.281.336 10.16 10.16 0 0 1-1.552.112 5.288 5.288 0 0 1-1.762-.282 2.98 2.98 0 0 1-1.381-1.03 5.501 5.501 0 0 1-.9-2.044 13.947 13.947 0 0 1-.326-3.3c-.032-1.395.11-2.79.423-4.151a6.623 6.623 0 0 1 1.085-2.424 3.32 3.32 0 0 1 1.58-1.154 6.019 6.019 0 0 1 1.889-.296m-.424 2.734c-.431 0-.741.31-.93.93-.23.947-.342 1.919-.336 2.893.396 0 .79-.019 1.183-.057.309-.018.613-.084.9-.196.067-.225.105-.457.113-.69.017-.292.027-.552.029-.778a8.482 8.482 0 0 0-.054-1.085 2.102 2.102 0 0 0-.17-.633.568.568 0 0 0-.297-.297 1.24 1.24 0 0 0-.438-.069M120.034 1.769c-.012-.278.03-.556.127-.818a.781.781 0 0 1 .467-.408c.31-.1.633-.152.958-.156.413-.017.948-.027 1.606-.029V7.52c.31-.269.668-.475 1.056-.608a4.058 4.058 0 0 1 1.339-.21c.498-.015.994.087 1.446.297.418.22.762.558.988.973.297.553.492 1.154.579 1.776.133.887.195 1.783.184 2.68a17.908 17.908 0 0 1-.506 4.778 7.256 7.256 0 0 1-1.295 2.691 3.56 3.56 0 0 1-1.762 1.197 7.06 7.06 0 0 1-1.873.268 7.733 7.733 0 0 1-1.975-.224 3.45 3.45 0 0 1-1.324-.622V1.769h-.015zm3.15 16.605c.167.157.391.238.62.225a.69.69 0 0 0 .437-.21c.214-.232.369-.513.452-.818a8.822 8.822 0 0 0 .362-1.707c.106-.96.153-1.927.141-2.893a9.241 9.241 0 0 0-.268-2.706c-.178-.506-.446-.76-.803-.763a1.27 1.27 0 0 0-.93.394v8.457l-.01.021zM133.4 20.52a.774.774 0 0 1-.059.34.456.456 0 0 1-.361.155 8.97 8.97 0 0 1-.959.058h-1.848V8.366c-.013-.27.036-.54.141-.788a.836.836 0 0 1 .492-.41 3.48 3.48 0 0 1 .973-.155c.412-.019.949-.029 1.61-.029V20.52h.01zm-3.075-17.648a2.796 2.796 0 0 1 .409-1.592c.3-.418.796-.649 1.309-.607.584 0 .978.15 1.183.452.25.497.358 1.054.31 1.61a3.129 3.129 0 0 1-.437 1.79c-.279.403-.743.637-1.233.622a1.389 1.389 0 0 1-1.114-.481c-.273-.32-.409-.924-.409-1.809l-.018.015zM135.259 7.636c.277-.132.565-.24.86-.322.362-.105.724-.203 1.129-.297.405-.094.814-.17 1.226-.224.384-.054.77-.082 1.157-.083a8.623 8.623 0 0 1 1.834.17c.461.09.893.294 1.255.593.339.304.588.694.724 1.128.173.566.253 1.156.239 1.747V20.52a.785.785 0 0 1-.058.34.496.496 0 0 1-.38.156 10.17 10.17 0 0 1-.988.058c-.44.01-1.056 0-1.848 0v-9.766a4.482 4.482 0 0 0-.17-1.508.723.723 0 0 0-.76-.41 1.729 1.729 0 0 0-1.085.337V20.52a.781.781 0 0 1-.057.34.452.452 0 0 1-.362.156 8.742 8.742 0 0 1-.944.058h-1.809V7.636h.037zM145.126 8.507a1.74 1.74 0 0 1 .097-.55.843.843 0 0 1 .297-.437 5.064 5.064 0 0 1 1.41-.521 10.989 10.989 0 0 1 2.793-.297c1.297 0 2.214.255 2.749.764.535.508.803 1.402.803 2.68v6.257c0 .789-.023 1.531-.069 2.228-.02.695-.048 1.306-.087 1.834a6.446 6.446 0 0 1-1.761.662 10.15 10.15 0 0 1-2.297.239 7.784 7.784 0 0 1-1.508-.141 2.81 2.81 0 0 1-1.27-.59 3.129 3.129 0 0 1-.89-1.327 6.634 6.634 0 0 1-.336-2.34 8.55 8.55 0 0 1 .268-2.355c.133-.523.38-1.01.723-1.425a2.282 2.282 0 0 1 1.042-.691c.392-.122.8-.184 1.211-.185.289.008.577.036.861.084.335.046.657.162.944.34V10.79a1.038 1.038 0 0 0-.267-.803 1.378 1.378 0 0 0-.919-.24 9.853 9.853 0 0 0-1.733.17c-.56.095-1.112.237-1.649.424a3.223 3.223 0 0 1-.34-.987 5.342 5.342 0 0 1-.083-.847h.01zm4.98 6.344a.68.68 0 0 0-.361-.184 1.95 1.95 0 0 0-.38-.043.8.8 0 0 0-.724.452c-.17.3-.253.9-.253 1.808-.027.49.035.98.181 1.447.116.291.412.47.724.438.139-.002.277-.026.408-.073a.879.879 0 0 0 .362-.21c.017-.149.031-.37.043-.661V14.85zM154.968 7.972a8.023 8.023 0 0 1 1.732-.886 6.095 6.095 0 0 1 2.17-.384c.77 0 1.277.114 1.523.34.27.294.402.689.362 1.085a7.683 7.683 0 0 1-.058.789 4.514 4.514 0 0 1-.253 1.045 2.275 2.275 0 0 0-.564-.184 2.93 2.93 0 0 0-.481-.044 1.931 1.931 0 0 0-.594.113 1.99 1.99 0 0 0-.618.34l-.03 10.344a.785.785 0 0 1-.057.34.456.456 0 0 1-.362.156c-.304.028-.61.04-.915.036h-1.859V7.972h.004zM166.227 6.702a7.657 7.657 0 0 1 1.878.185c.372.084.726.237 1.041.452.207.142.365.344.453.579.06.182.094.372.097.564a2.127 2.127 0 0 1-.17.788c-.107.266-.26.511-.452.724a4.608 4.608 0 0 0-1.172-.452 5.57 5.57 0 0 0-1.255-.141c-.885 0-1.327.282-1.327.846.007.185.05.367.126.535.178.33.411.624.691.872l2.087 2.116c.254.281.485.583.69.9.168.261.314.535.439.818.112.266.188.546.224.832.04.323.059.648.058.973a3.679 3.679 0 0 1-1.284 2.988c-.856.723-2.008 1.085-3.455 1.085a9.23 9.23 0 0 1-1.284-.087 4.181 4.181 0 0 1-1.041-.268 1.776 1.776 0 0 1-.706-.506 1.208 1.208 0 0 1-.267-.803c.005-.271.043-.54.112-.803.087-.34.22-.668.394-.973.388.206.8.363 1.226.467.401.1.813.153 1.226.155.39.031.777-.085 1.085-.325a1.11 1.11 0 0 0 .362-.861 2.998 2.998 0 0 0-.097-.706 2.214 2.214 0 0 0-.521-.875l-2.453-2.593a5.09 5.09 0 0 1-1.041-1.577 3.896 3.896 0 0 1-.311-1.411c-.004-.471.077-.94.238-1.382a2.68 2.68 0 0 1 .774-1.114c.419-.339.905-.585 1.425-.723a7.784 7.784 0 0 1 2.214-.268"/></g></svg>